<?xml version="1.0" standalone="no"?><!DOCTYPE svg PUBLIC "-//W3C//DTD SVG 1.1//EN" "http://www.w3.org/Graphics/SVG/1.1/DTD/svg11.dtd"><svg xmlns:xlink="http://www.w3.org/1999/xlink" xmlns="http://www.w3.org/2000/svg" version="1.1" width="200" height="200" viewBox="0 0 200 200"><defs><style type="text/css"><![CDATA[
@font-face {
  font-family: "ifont";
  src: url("//at.alicdn.com/t/font_1442373896_4754455.eot?#iefix") format("embedded-opentype"), url("//at.alicdn.com/t/font_1442373896_4754455.woff") format("woff"), url("//at.alicdn.com/t/font_1442373896_4754455.ttf") format("truetype"), url("//at.alicdn.com/t/font_1442373896_4754455.svg#ifont") format("svg");
}

]]></style></defs><g class="transform-group"><g transform="scale(0.1953125, 0.1953125)"><path d="M795.706015 783.607978c15.3455 0 27.828812-12.741185 27.828812-28.402887s-12.483312-28.402887-27.828812-28.402887c-15.343453 0-27.828812 12.741185-27.828812 28.402887S780.362562 783.607978 795.706015 783.607978zM919.066601 325.255829 672.34543 325.255829c-22.353101 0-40.536228 18.575054-40.536228 41.406039l0 423.617044c0 22.832008 18.184151 41.406039 40.536228 41.406039l246.721171 0c22.353101 0 40.536228-18.574031 40.536228-41.406039L959.602829 366.661867C959.602829 343.830883 941.419701 325.255829 919.066601 325.255829zM928.719448 790.279934c0 5.483898-4.328585 9.946536-9.653871 9.946536L672.34543 800.22647c-5.324262 0-9.655917-4.461615-9.655917-9.946536l0-75.480088 266.029936 0L928.719448 790.279934zM928.719448 681.142282 662.690536 681.142282 662.690536 366.661867c0-5.484921 4.330632-9.945513 9.655917-9.945513l246.721171 0c5.324262 0 9.653871 4.460592 9.653871 9.945513L928.721495 681.142282zM101.5043 229.327012 835.575048 229.327012 835.575048 312.470641 875.807355 312.470641 875.807355 192.314027 64.395124 192.314027 64.395124 735.082798 357.900831 735.082798 357.900831 794.307667 248.569774 794.307667 248.569774 831.319629 615.428116 831.319629 615.428116 794.307667 582.170664 794.307667 582.170664 735.082798 615.428116 735.082798 615.428116 698.068789 101.5043 698.068789Z" fill="#272636"></path></g></g></svg>